<svg xmlns="http://www.w3.org/2000/svg" viewBox="0 0 320 160">
<rect width="320" height="160" fill="#EFD9A8"/>
<rect x="120" y="55" width="80" height="60" rx="8" fill="#4A2E1E"/>
<ellipse cx="160" cy="55" rx="40" ry="7" fill="#2A1B12"/>
<path d="M235 65h12a14 14 0 0 1 0 28h-12" fill="none" stroke="#4A2E1E" stroke-width="9" stroke-linecap="round"/>
<g fill="#D9A441">
<path d="M90 40l3 8 8 3-8 3-3 8-3-8-8-3 8-3z"/>
<path d="M235 30l2.5 6.5 6.5 2.5-6.5 2.5-2.5 6.5-2.5-6.5-6.5-2.5 6.5-2.5z"/>
<path d="M60 90l2 5 5 2-5 2-2 5-2-5-5-2 5-2z"/>
</g>
</svg>
